<svg id="SvgjsSvg1001" width="288" height="288" xmlns="http://www.w3.org/2000/svg" version="1.1" xmlns:xlink="http://www.w3.org/1999/xlink" xmlns:svgjs="http://svgjs.com/svgjs"><defs id="SvgjsDefs1002"></defs><g id="SvgjsG1008"><svg xmlns="http://www.w3.org/2000/svg" data-name="Layer 1" viewBox="0 0 750 750" width="288" height="288"><defs><linearGradient id="a" x1="50.44" x2="702.61" y1="375" y2="375" gradientUnits="userSpaceOnUse"><stop offset="0" stop-color="#0e153a" class="stopColor009114 svgShape"></stop><stop offset="1" stop-color="#e2f3f5" class="stopColorccf370 svgShape"></stop></linearGradient></defs><path fill="url(#a)" d="M679.56,332.37l-40.32-20V217.75a107.12,107.12,0,0,0-107-107H217.75a107.12,107.12,0,0,0-107,107v95L72.34,333.35A41.51,41.51,0,0,0,75,407.83l35.76,16V532.25a107.12,107.12,0,0,0,107,107h314.5a107.12,107.12,0,0,0,107-107V424.05l38.19-16.34a41.51,41.51,0,0,0,2.13-75.34Zm-17.87,38.56-50.32,21.53a20,20,0,0,0-12.13,18.39v121.4a67.06,67.06,0,0,1-67,67H217.75a67.06,67.06,0,0,1-67-67V410.85a20,20,0,0,0-11.83-18.26l-47.6-21.28a1.51,1.51,0,0,1-.1-2.71l49-26.24a20,20,0,0,0,10.55-17.62v-107a67.06,67.06,0,0,1,67-67h314.5a67.06,67.06,0,0,1,67,67v107a20,20,0,0,0,11.1,17.91l51.43,25.54a1.51,1.51,0,0,1-.08,2.74Zm-180.4-63.37a86.7,86.7,0,0,0-86.6-86.6h-106a20,20,0,0,0-20,20v133.2c0,.28,0,.56,0,.84s0,.56,0,.84V509a20,20,0,0,0,20,20h106A86.56,86.56,0,0,0,449,375,86.48,86.48,0,0,0,481.29,307.56ZM308.71,261h86a46.6,46.6,0,0,1,0,93.2h-86Zm86,228.08h-86v-93.2h86a46.6,46.6,0,0,1,0,93.2Z"></path></svg></g></svg>